<svg xmlns="http://www.w3.org/2000/svg" version="1.1" height="341.00000000000017px" width="895.8333333333334px" viewBox="-10 -10 915.8333333333334 361.00000000000017" content="&lt;mxGraphModel dx=&quot;1253&quot; dy=&quot;584&quot; grid=&quot;1&quot; gridSize=&quot;10&quot; guides=&quot;1&quot; tooltips=&quot;1&quot; connect=&quot;1&quot; arrows=&quot;1&quot; fold=&quot;1&quot; page=&quot;0&quot; pageScale=&quot;1&quot; pageWidth=&quot;827&quot; pageHeight=&quot;1169&quot; math=&quot;0&quot; shadow=&quot;0&quot;&gt;&lt;root&gt;&lt;mxCell id=&quot;0&quot;/&gt;&lt;mxCell id=&quot;1&quot; parent=&quot;0&quot;/&gt;&lt;mxCell id=&quot;14&quot; style=&quot;edgeStyle=none;html=1;entryX=0;entryY=0.5;entryDx=0;entryDy=0;sketch=1;curveFitting=1;jiggle=2;&quot; parent=&quot;1&quot; source=&quot;2&quot; target=&quot;3&quot; edge=&quot;1&quot;&gt;&lt;mxGeometry relative=&quot;1&quot; as=&quot;geometry&quot;/&gt;&lt;/mxCell&gt;&lt;mxCell id=&quot;15&quot; value=&quot;舵机控制电流&quot; style=&quot;edgeLabel;html=1;align=center;verticalAlign=middle;resizable=0;points=[];&quot; parent=&quot;14&quot; vertex=&quot;1&quot; connectable=&quot;0&quot;&gt;&lt;mxGeometry x=&quot;0.1191&quot; y=&quot;-3&quot; relative=&quot;1&quot; as=&quot;geometry&quot;&gt;&lt;mxPoint x=&quot;-6&quot; y=&quot;-13&quot; as=&quot;offset&quot;/&gt;&lt;/mxGeometry&gt;&lt;/mxCell&gt;&lt;mxCell id=&quot;2&quot; value=&quot;放大器&quot; style=&quot;rounded=0;whiteSpace=wrap;html=1;sketch=1;curveFitting=1;jiggle=2;fillColor=#f8cecc;strokeColor=#b85450;&quot; parent=&quot;1&quot; vertex=&quot;1&quot;&gt;&lt;mxGeometry x=&quot;30&quot; y=&quot;170&quot; width=&quot;120&quot; height=&quot;60&quot; as=&quot;geometry&quot;/&gt;&lt;/mxCell&gt;&lt;mxCell id=&quot;16&quot; style=&quot;edgeStyle=none;html=1;entryX=0;entryY=0.5;entryDx=0;entryDy=0;sketch=1;curveFitting=1;jiggle=2;&quot; parent=&quot;1&quot; source=&quot;3&quot; target=&quot;4&quot; edge=&quot;1&quot;&gt;&lt;mxGeometry relative=&quot;1&quot; as=&quot;geometry&quot;/&gt;&lt;/mxCell&gt;&lt;mxCell id=&quot;17&quot; value=&quot;舵面角&quot; style=&quot;edgeLabel;html=1;align=center;verticalAlign=middle;resizable=0;points=[];&quot; parent=&quot;16&quot; vertex=&quot;1&quot; connectable=&quot;0&quot;&gt;&lt;mxGeometry x=&quot;-0.2006&quot; y=&quot;2&quot; relative=&quot;1&quot; as=&quot;geometry&quot;&gt;&lt;mxPoint x=&quot;2&quot; y=&quot;-8&quot; as=&quot;offset&quot;/&gt;&lt;/mxGeometry&gt;&lt;/mxCell&gt;&lt;mxCell id=&quot;3&quot; value=&quot;舵机&quot; style=&quot;rounded=0;whiteSpace=wrap;html=1;sketch=1;curveFitting=1;jiggle=2;fillColor=#e1d5e7;strokeColor=#9673a6;&quot; parent=&quot;1&quot; vertex=&quot;1&quot;&gt;&lt;mxGeometry x=&quot;230&quot; y=&quot;170&quot; width=&quot;120&quot; height=&quot;60&quot; as=&quot;geometry&quot;/&gt;&lt;/mxCell&gt;&lt;mxCell id=&quot;18&quot; style=&quot;edgeStyle=none;html=1;exitX=1;exitY=0.5;exitDx=0;exitDy=0;sketch=1;curveFitting=1;jiggle=2;&quot; parent=&quot;1&quot; source=&quot;4&quot; edge=&quot;1&quot;&gt;&lt;mxGeometry relative=&quot;1&quot; as=&quot;geometry&quot;&gt;&lt;mxPoint x=&quot;650&quot; y=&quot;199.58&quot; as=&quot;targetPoint&quot;/&gt;&lt;mxPoint x=&quot;540&quot; y=&quot;199.58&quot; as=&quot;sourcePoint&quot;/&gt;&lt;/mxGeometry&gt;&lt;/mxCell&gt;&lt;mxCell id=&quot;19&quot; value=&quot;变化后俯仰角&quot; style=&quot;edgeLabel;html=1;align=center;verticalAlign=middle;resizable=0;points=[];&quot; parent=&quot;18&quot; vertex=&quot;1&quot; connectable=&quot;0&quot;&gt;&lt;mxGeometry x=&quot;0.228&quot; y=&quot;1&quot; relative=&quot;1&quot; as=&quot;geometry&quot;&gt;&lt;mxPoint x=&quot;-17&quot; y=&quot;-9&quot; as=&quot;offset&quot;/&gt;&lt;/mxGeometry&gt;&lt;/mxCell&gt;&lt;mxCell id=&quot;4&quot; value=&quot;飞机&quot; style=&quot;rounded=0;whiteSpace=wrap;html=1;sketch=1;curveFitting=1;jiggle=2;fillColor=#d5e8d4;strokeColor=#82b366;&quot; parent=&quot;1&quot; vertex=&quot;1&quot;&gt;&lt;mxGeometry x=&quot;420&quot; y=&quot;170&quot; width=&quot;120&quot; height=&quot;60&quot; as=&quot;geometry&quot;/&gt;&lt;/mxCell&gt;&lt;mxCell id=&quot;10&quot; style=&quot;edgeStyle=none;html=1;&quot; parent=&quot;1&quot; source=&quot;6&quot; target=&quot;7&quot; edge=&quot;1&quot;&gt;&lt;mxGeometry relative=&quot;1&quot; as=&quot;geometry&quot;/&gt;&lt;/mxCell&gt;&lt;mxCell id=&quot;6&quot; value=&quot;大电位器&quot; style=&quot;ellipse;whiteSpace=wrap;html=1;aspect=fixed;sketch=1;curveFitting=1;jiggle=2;fillColor=#fff2cc;strokeColor=#d6b656;&quot; parent=&quot;1&quot; vertex=&quot;1&quot;&gt;&lt;mxGeometry x=&quot;-150&quot; y=&quot;185&quot; width=&quot;30&quot; height=&quot;30&quot; as=&quot;geometry&quot;/&gt;&lt;/mxCell&gt;&lt;mxCell id=&quot;11&quot; style=&quot;edgeStyle=none;html=1;exitX=1;exitY=0.5;exitDx=0;exitDy=0;entryX=0;entryY=0.5;entryDx=0;entryDy=0;&quot; parent=&quot;1&quot; source=&quot;7&quot; target=&quot;2&quot; edge=&quot;1&quot;&gt;&lt;mxGeometry relative=&quot;1&quot; as=&quot;geometry&quot;/&gt;&lt;/mxCell&gt;&lt;mxCell id=&quot;13&quot; value=&quot;反应电流&quot; style=&quot;edgeLabel;html=1;align=center;verticalAlign=middle;resizable=0;points=[];&quot; parent=&quot;11&quot; vertex=&quot;1&quot; connectable=&quot;0&quot;&gt;&lt;mxGeometry x=&quot;-0.2459&quot; y=&quot;-1&quot; relative=&quot;1&quot; as=&quot;geometry&quot;&gt;&lt;mxPoint x=&quot;10&quot; y=&quot;-11&quot; as=&quot;offset&quot;/&gt;&lt;/mxGeometry&gt;&lt;/mxCell&gt;&lt;mxCell id=&quot;7&quot; value=&quot;小电位器&quot; style=&quot;ellipse;whiteSpace=wrap;html=1;aspect=fixed;sketch=1;curveFitting=1;jiggle=2;fillColor=#fff2cc;strokeColor=#d6b656;&quot; parent=&quot;1&quot; vertex=&quot;1&quot;&gt;&lt;mxGeometry x=&quot;-60&quot; y=&quot;185&quot; width=&quot;30&quot; height=&quot;30&quot; as=&quot;geometry&quot;/&gt;&lt;/mxCell&gt;&lt;mxCell id=&quot;8&quot; value=&quot;&quot; style=&quot;endArrow=classic;html=1;entryX=0;entryY=0.5;entryDx=0;entryDy=0;sketch=1;curveFitting=1;jiggle=2;&quot; parent=&quot;1&quot; target=&quot;6&quot; edge=&quot;1&quot;&gt;&lt;mxGeometry width=&quot;50&quot; height=&quot;50&quot; relative=&quot;1&quot; as=&quot;geometry&quot;&gt;&lt;mxPoint x=&quot;-230&quot; y=&quot;200&quot; as=&quot;sourcePoint&quot;/&gt;&lt;mxPoint x=&quot;-180&quot; y=&quot;150&quot; as=&quot;targetPoint&quot;/&gt;&lt;/mxGeometry&gt;&lt;/mxCell&gt;&lt;mxCell id=&quot;9&quot; value=&quot;预期俯仰角&quot; style=&quot;edgeLabel;html=1;align=center;verticalAlign=middle;resizable=0;points=[];&quot; parent=&quot;8&quot; vertex=&quot;1&quot; connectable=&quot;0&quot;&gt;&lt;mxGeometry x=&quot;0.0292&quot; y=&quot;-2&quot; relative=&quot;1&quot; as=&quot;geometry&quot;&gt;&lt;mxPoint y=&quot;-12&quot; as=&quot;offset&quot;/&gt;&lt;/mxGeometry&gt;&lt;/mxCell&gt;&lt;mxCell id=&quot;20&quot; value=&quot;反应电流&quot; style=&quot;edgeLabel;html=1;align=center;verticalAlign=middle;resizable=0;points=[];&quot; parent=&quot;1&quot; vertex=&quot;1&quot; connectable=&quot;0&quot;&gt;&lt;mxGeometry x=&quot;-90.00428571428567&quot; y=&quot;190&quot; as=&quot;geometry&quot;/&gt;&lt;/mxCell&gt;&lt;mxCell id=&quot;21&quot; value=&quot;&quot; style=&quot;endArrow=classic;html=1;edgeStyle=orthogonalEdgeStyle;entryX=0.5;entryY=1;entryDx=0;entryDy=0;rounded=0;exitX=0;exitY=0.5;exitDx=0;exitDy=0;sketch=1;curveFitting=1;jiggle=2;&quot; parent=&quot;1&quot; source=&quot;28&quot; edge=&quot;1&quot;&gt;&lt;mxGeometry width=&quot;50&quot; height=&quot;50&quot; relative=&quot;1&quot; as=&quot;geometry&quot;&gt;&lt;mxPoint x=&quot;605&quot; y=&quot;200&quot; as=&quot;sourcePoint&quot;/&gt;&lt;mxPoint x=&quot;-130&quot; y=&quot;215&quot; as=&quot;targetPoint&quot;/&gt;&lt;Array as=&quot;points&quot;&gt;&lt;mxPoint x=&quot;110&quot; y=&quot;350&quot;/&gt;&lt;mxPoint x=&quot;-130&quot; y=&quot;350&quot;/&gt;&lt;/Array&gt;&lt;/mxGeometry&gt;&lt;/mxCell&gt;&lt;mxCell id=&quot;32&quot; value=&quot;接触电极位移&quot; style=&quot;edgeLabel;html=1;align=center;verticalAlign=middle;resizable=0;points=[];&quot; vertex=&quot;1&quot; connectable=&quot;0&quot; parent=&quot;21&quot;&gt;&lt;mxGeometry x=&quot;-0.3755&quot; y=&quot;1&quot; relative=&quot;1&quot; as=&quot;geometry&quot;&gt;&lt;mxPoint x=&quot;-13&quot; y=&quot;-11&quot; as=&quot;offset&quot;/&gt;&lt;/mxGeometry&gt;&lt;/mxCell&gt;&lt;mxCell id=&quot;23&quot; value=&quot;&quot; style=&quot;endArrow=classic;html=1;edgeStyle=orthogonalEdgeStyle;strokeColor=default;rounded=0;entryX=1;entryY=0.5;entryDx=0;entryDy=0;sketch=1;curveFitting=1;jiggle=2;&quot; parent=&quot;1&quot; target=&quot;25&quot; edge=&quot;1&quot;&gt;&lt;mxGeometry width=&quot;50&quot; height=&quot;50&quot; relative=&quot;1&quot; as=&quot;geometry&quot;&gt;&lt;mxPoint x=&quot;380&quot; y=&quot;200&quot; as=&quot;sourcePoint&quot;/&gt;&lt;mxPoint x=&quot;-45&quot; y=&quot;180&quot; as=&quot;targetPoint&quot;/&gt;&lt;Array as=&quot;points&quot;&gt;&lt;mxPoint x=&quot;380&quot; y=&quot;70&quot;/&gt;&lt;/Array&gt;&lt;/mxGeometry&gt;&lt;/mxCell&gt;&lt;mxCell id=&quot;29&quot; value=&quot;角位移&quot; style=&quot;edgeLabel;html=1;align=center;verticalAlign=middle;resizable=0;points=[];&quot; vertex=&quot;1&quot; connectable=&quot;0&quot; parent=&quot;23&quot;&gt;&lt;mxGeometry x=&quot;0.3572&quot; y=&quot;3&quot; relative=&quot;1&quot; as=&quot;geometry&quot;&gt;&lt;mxPoint y=&quot;-13&quot; as=&quot;offset&quot;/&gt;&lt;/mxGeometry&gt;&lt;/mxCell&gt;&lt;mxCell id=&quot;26&quot; style=&quot;edgeStyle=orthogonalEdgeStyle;html=1;entryX=0.5;entryY=0;entryDx=0;entryDy=0;rounded=0;sketch=1;curveFitting=1;jiggle=2;&quot; parent=&quot;1&quot; source=&quot;25&quot; target=&quot;7&quot; edge=&quot;1&quot;&gt;&lt;mxGeometry relative=&quot;1&quot; as=&quot;geometry&quot;/&gt;&lt;/mxCell&gt;&lt;mxCell id=&quot;30&quot; value=&quot;接触电极位移&quot; style=&quot;edgeLabel;html=1;align=center;verticalAlign=middle;resizable=0;points=[];&quot; vertex=&quot;1&quot; connectable=&quot;0&quot; parent=&quot;26&quot;&gt;&lt;mxGeometry x=&quot;-0.333&quot; y=&quot;-2&quot; relative=&quot;1&quot; as=&quot;geometry&quot;&gt;&lt;mxPoint y=&quot;-8&quot; as=&quot;offset&quot;/&gt;&lt;/mxGeometry&gt;&lt;/mxCell&gt;&lt;mxCell id=&quot;25&quot; value=&quot;小电位臂&quot; style=&quot;rounded=0;whiteSpace=wrap;html=1;sketch=1;curveFitting=1;jiggle=2;fillColor=#dae8fc;strokeColor=#6c8ebf;&quot; parent=&quot;1&quot; vertex=&quot;1&quot;&gt;&lt;mxGeometry x=&quot;110&quot; y=&quot;40&quot; width=&quot;120&quot; height=&quot;60&quot; as=&quot;geometry&quot;/&gt;&lt;/mxCell&gt;&lt;mxCell id=&quot;27&quot; value=&quot;&quot; style=&quot;endArrow=classic;html=1;edgeStyle=orthogonalEdgeStyle;entryX=1;entryY=0.5;entryDx=0;entryDy=0;rounded=0;sketch=1;curveFitting=1;jiggle=2;&quot; parent=&quot;1&quot; target=&quot;28&quot; edge=&quot;1&quot;&gt;&lt;mxGeometry width=&quot;50&quot; height=&quot;50&quot; relative=&quot;1&quot; as=&quot;geometry&quot;&gt;&lt;mxPoint x=&quot;605&quot; y=&quot;200&quot; as=&quot;sourcePoint&quot;/&gt;&lt;mxPoint x=&quot;-130&quot; y=&quot;215&quot; as=&quot;targetPoint&quot;/&gt;&lt;Array as=&quot;points&quot;&gt;&lt;mxPoint x=&quot;605&quot; y=&quot;350&quot;/&gt;&lt;/Array&gt;&lt;/mxGeometry&gt;&lt;/mxCell&gt;&lt;mxCell id=&quot;31&quot; value=&quot;角位移&quot; style=&quot;edgeLabel;html=1;align=center;verticalAlign=middle;resizable=0;points=[];&quot; vertex=&quot;1&quot; connectable=&quot;0&quot; parent=&quot;27&quot;&gt;&lt;mxGeometry x=&quot;0.5941&quot; relative=&quot;1&quot; as=&quot;geometry&quot;&gt;&lt;mxPoint x=&quot;92&quot; y=&quot;-10&quot; as=&quot;offset&quot;/&gt;&lt;/mxGeometry&gt;&lt;/mxCell&gt;&lt;mxCell id=&quot;28&quot; value=&quot;大电位臂&quot; style=&quot;rounded=0;whiteSpace=wrap;html=1;sketch=1;curveFitting=1;jiggle=2;fillColor=#dae8fc;strokeColor=#6c8ebf;&quot; parent=&quot;1&quot; vertex=&quot;1&quot;&gt;&lt;mxGeometry x=&quot;140&quot; y=&quot;320&quot; width=&quot;120&quot; height=&quot;60&quot; as=&quot;geometry&quot;/&gt;&lt;/mxCell&gt;&lt;/root&gt;&lt;/mxGraphModel&gt;"><style type="text/css"></style><path d="M 387.5 160.5 M 387.5 160.5 C 404.25 157.43 419.39 158.61 461.13 160.5 M 387.5 160.5 C 408.12 159.3 431.92 160.25 461.13 160.5" fill="none" stroke="rgb(0, 0, 0)" stroke-linejoin="round" stroke-linecap="round" stroke-miterlimit="10" pointer-events="none"/><path d="M 459.67 156.67 C 459.67 156.67 459.67 156.67 459.67 156.67 M 459.67 156.67 C 459.67 156.67 459.67 156.67 459.67 156.67 M 461.38 160.8 C 461.61 159.85 463.27 158.89 463.35 158.54 M 461.38 160.8 C 461.96 160.46 462.27 159.9 463.35 158.54" fill="none" stroke="rgb(0, 0, 0)" stroke-linejoin="round" stroke-linecap="round" stroke-miterlimit="10" pointer-events="none"/><path d="M 466.38 160.5 M 466.38 160.5 C 463.02 162.31 462.67 163.01 459.38 164 M 466.38 160.5 C 463.62 161.09 460.62 163.19 459.38 164 M 459.38 164 C 459.85 163.08 459.97 163.07 461.13 160.5 M 459.38 164 C 459.98 163.11 460.27 161.9 461.13 160.5 M 461.13 160.5 C 459.69 159.6 460.54 158.12 459.38 157 M 461.13 160.5 C 460.25 159.83 460.36 158.96 459.38 157 M 459.38 157 C 461.68 159.64 464.79 159.71 466.38 160.5 M 459.38 157 C 461.9 158.25 463.63 158.15 466.38 160.5" fill="none" stroke="rgb(0, 0, 0)" stroke-linejoin="round" stroke-linecap="round" stroke-miterlimit="10" pointer-events="none"/><g><foreignObject pointer-events="none" width="100%" height="100%" style="overflow: visible; text-align: left;"><div xmlns="http://www.w3.org/1999/xhtml" style="display: flex; align-items: unsafe center; justify-content: unsafe center; width: 1px; height: 1px; padding-top: 151px; margin-left: 427px;"><div data-drawio-colors="color: rgb(0, 0, 0); background-color: rgb(255, 255, 255); " style="box-sizing: border-box; font-size: 0px; text-align: center;"><div style="display: inline-block; font-size: 11px; font-family: Helvetica; color: rgb(0, 0, 0); line-height: 1.2; pointer-events: none; background-color: rgb(255, 255, 255); white-space: nowrap;">舵机控制电流</div></div></div></foreignObject></g><path d="M 267.71 130.25 C 267.71 130.25 267.71 130.25 267.71 130.25 M 267.71 130.25 C 267.71 130.25 267.71 130.25 267.71 130.25 M 267.45 136.65 C 270.89 133.33 271.29 130.94 272.7 130.61 M 267.45 136.65 C 268.59 135.78 269.59 132.72 272.7 130.61 M 267.19 143.05 C 271.05 136.31 276.43 136.19 278.34 130.22 M 267.19 143.05 C 268.86 140.04 273.92 136.27 278.34 130.22 M 267.59 148.69 C 270.48 144.28 274.34 141.27 283.33 130.58 M 267.59 148.69 C 272.36 144.17 278.11 138.39 283.33 130.58 M 267.32 155.09 C 272.74 142.32 287.03 134.76 288.97 130.18 M 267.32 155.09 C 273.27 146.06 281.11 139.08 288.97 130.18 M 267.72 160.73 C 281.16 148.37 284.18 139.68 293.96 130.54 M 267.72 160.73 C 275.46 155.23 280.84 146.12 293.96 130.54 M 267.46 167.13 C 278.46 155.53 291.96 137.58 299.6 130.15 M 267.46 167.13 C 281.27 153.58 291.83 140.6 299.6 130.15 M 267.2 173.53 C 279.65 164.17 283.79 152.67 304.59 130.51 M 267.2 173.53 C 273.55 163.69 283.61 153.79 304.59 130.51 M 267.59 179.17 C 282.07 166.29 293.66 150.83 309.58 130.87 M 267.59 179.17 C 277.41 169.49 286.11 157.85 309.58 130.87 M 267.33 185.57 C 286.94 165.92 299.58 146.37 315.22 130.48 M 267.33 185.57 C 282.48 168.95 297.37 149.35 315.22 130.48 M 267.72 191.21 C 286.58 168.47 302.23 152.62 320.21 130.84 M 267.72 191.21 C 277.95 176.41 292.1 163.95 320.21 130.84 M 273.37 190.82 C 288.49 174.7 302.18 159.1 325.85 130.44 M 273.37 190.82 C 289.47 174.5 307.73 155.55 325.85 130.44 M 278.35 191.18 C 298.74 165.95 320.5 142.19 330.84 130.8 M 278.35 191.18 C 295.62 173.22 310.93 154.23 330.84 130.8 M 284 190.78 C 298.15 169.53 317.46 154.78 336.48 130.41 M 284 190.78 C 297.98 178.81 308.27 164.81 336.48 130.41 M 288.98 191.14 C 306.51 167.33 331.74 149.28 341.47 130.77 M 288.98 191.14 C 303.05 177.43 315.72 163.28 341.47 130.77 M 294.63 190.75 C 315.13 170.62 331.12 143.56 347.11 130.37 M 294.63 190.75 C 310.13 171.58 325.07 157.6 347.11 130.37 M 299.61 191.11 C 317.13 174.85 330.18 156.17 352.1 130.73 M 299.61 191.11 C 308.57 176.26 321.89 166.19 352.1 130.73 M 305.26 190.71 C 323.7 170.47 334.22 151.83 357.74 130.34 M 305.26 190.71 C 318.16 176.43 334.35 159.48 357.74 130.34 M 310.24 191.07 C 320.27 179.86 335.8 163.29 362.73 130.7 M 310.24 191.07 C 323.43 173.95 338.31 157.48 362.73 130.7 M 315.89 190.68 C 331.92 176.01 339.32 164.36 368.37 130.3 M 315.89 190.68 C 326.88 177.01 338.99 163.32 368.37 130.3 M 320.87 191.04 C 338.6 169.48 356.62 145.87 373.36 130.66 M 320.87 191.04 C 339.8 166.44 362.52 143.83 373.36 130.66 M 326.52 190.64 C 337.11 169.51 354.12 151.38 379 130.27 M 326.52 190.64 C 346.69 165.94 365.89 144.36 379 130.27 M 331.5 191.01 C 351.34 168.34 368.98 150 383.99 130.63 M 331.5 191.01 C 343.86 174.18 362.15 154.9 383.99 130.63 M 337.15 190.61 C 351.72 166.77 375.18 145.4 388.32 131.74 M 337.15 190.61 C 358 167 375.59 145.16 388.32 131.74 M 342.14 190.97 C 363.01 167.33 380.29 145.54 388.72 137.39 M 342.14 190.97 C 352.77 177.13 365.5 161.83 388.72 137.39 M 347.78 190.58 C 361.2 176.28 368.83 166.99 388.45 143.78 M 347.78 190.58 C 358.27 176.78 371.46 160.2 388.45 143.78 M 352.77 190.94 C 368.73 175.02 382.11 161.47 388.85 149.43 M 352.77 190.94 C 360.54 183.08 368.19 171.29 388.85 149.43 M 358.41 190.54 C 367.16 174.76 375.61 166.67 388.59 155.82 M 358.41 190.54 C 369.33 176.46 383.49 164.92 388.59 155.82 M 363.4 190.9 C 366.72 183.11 374.19 170.61 388.33 162.22 M 363.4 190.9 C 370.52 180.75 378.24 175 388.33 162.22 M 368.38 191.26 C 376.12 185.79 378.32 176.89 388.72 167.87 M 368.38 191.26 C 376.42 183.75 382.03 177.92 388.72 167.87 M 374.03 190.87 C 376.27 183.46 382.37 181.03 388.46 174.26 M 374.03 190.87 C 378.32 184.61 381.99 177.91 388.46 174.26 M 379.01 191.23 C 381.64 190.07 382.35 183.42 388.85 179.91 M 379.01 191.23 C 382.91 186.73 385.73 183.02 388.85 179.91 M 384.66 190.83 C 386.67 189.38 385.71 188.56 388.59 186.3 M 384.66 190.83 C 385.53 189.06 386.22 188.5 388.59 186.3" fill="none" stroke="#f8cecc" stroke-linejoin="round" stroke-linecap="round" stroke-miterlimit="10" pointer-events="none"/><path d="M 267.5 130.5 C 294.42 125.65 311.79 125.94 387.5 130.5 M 267.5 130.5 C 295.06 131.43 322.08 132.78 387.5 130.5 M 387.5 130.5 C 386.46 149.24 385.88 163.96 387.5 190.5 M 387.5 130.5 C 387.46 154.84 384.81 179.25 387.5 190.5 M 387.5 190.5 C 354.86 192.58 321.29 187.41 267.5 190.5 M 387.5 190.5 C 349.07 189.38 313.25 189.15 267.5 190.5 M 267.5 190.5 C 263.47 167.28 269.42 140.44 267.5 130.5 M 267.5 190.5 C 267.62 174.86 266.6 156.69 267.5 130.5" fill="none" stroke="#b85450" stroke-linejoin="round" stroke-linecap="round" stroke-miterlimit="10" pointer-events="none"/><g><foreignObject pointer-events="none" width="100%" height="100%" style="overflow: visible; text-align: left;"><div xmlns="http://www.w3.org/1999/xhtml" style="display: flex; align-items: unsafe center; justify-content: unsafe center; width: 118px; height: 1px; padding-top: 161px; margin-left: 269px;"><div data-drawio-colors="color: rgb(0, 0, 0); " style="box-sizing: border-box; font-size: 0px; text-align: center;"><div style="display: inline-block; font-size: 12px; font-family: Helvetica; color: rgb(0, 0, 0); line-height: 1.2; pointer-events: none; white-space: normal; overflow-wrap: normal;">放大器</div></div></div></foreignObject></g><path d="M 587.5 160.5 M 587.5 160.5 C 597.56 160.79 613.89 162.78 651.13 160.5 M 587.5 160.5 C 602.46 161.23 618.12 163.05 651.13 160.5" fill="none" stroke="rgb(0, 0, 0)" stroke-linejoin="round" stroke-linecap="round" stroke-miterlimit="10" pointer-events="none"/><path d="M 649.24 157.16 C 649.24 157.16 649.24 157.16 649.24 157.16 M 649.24 157.16 C 649.24 157.16 649.24 157.16 649.24 157.16 M 651.61 160.54 C 652.29 160.14 651.97 159.97 652.92 159.03 M 651.61 160.54 C 651.87 159.96 652.64 159.28 652.92 159.03" fill="none" stroke="rgb(0, 0, 0)" stroke-linejoin="round" stroke-linecap="round" stroke-miterlimit="10" pointer-events="none"/><path d="M 656.38 160.5 M 656.38 160.5 C 655.72 160.73 652.74 163.51 649.38 164 M 656.38 160.5 C 654.73 160.95 652.59 162.46 649.38 164 M 649.38 164 C 650.49 162.77 651.17 162.32 651.13 160.5 M 649.38 164 C 649.89 162.68 650.49 161.76 651.13 160.5 M 651.13 160.5 C 651.24 159.63 649.68 158.13 649.38 157 M 651.13 160.5 C 650.94 159.55 650.32 158.63 649.38 157 M 649.38 157 C 650.83 156.63 655.41 160.69 656.38 160.5 M 649.38 157 C 651.52 158.6 654.15 159.5 656.38 160.5" fill="none" stroke="rgb(0, 0, 0)" stroke-linejoin="round" stroke-linecap="round" stroke-miterlimit="10" pointer-events="none"/><g><foreignObject pointer-events="none" width="100%" height="100%" style="overflow: visible; text-align: left;"><div xmlns="http://www.w3.org/1999/xhtml" style="display: flex; align-items: unsafe center; justify-content: unsafe center; width: 1px; height: 1px; padding-top: 151px; margin-left: 618px;"><div data-drawio-colors="color: rgb(0, 0, 0); background-color: rgb(255, 255, 255); " style="box-sizing: border-box; font-size: 0px; text-align: center;"><div style="display: inline-block; font-size: 11px; font-family: Helvetica; color: rgb(0, 0, 0); line-height: 1.2; pointer-events: none; background-color: rgb(255, 255, 255); white-space: nowrap;">舵面角</div></div></div></foreignObject></g><path d="M 467.58 130.41 C 467.58 130.41 467.58 130.41 467.58 130.41 M 467.58 130.41 C 467.58 130.41 467.58 130.41 467.58 130.41 M 467.31 136.81 C 467.98 135.9 468.63 133.09 472.56 130.77 M 467.31 136.81 C 469.28 136.13 469.29 133.56 472.56 130.77 M 467.71 142.45 C 472.05 135.98 473.78 132.83 478.21 130.38 M 467.71 142.45 C 471.73 139.34 471.25 138.07 478.21 130.38 M 467.45 148.85 C 470.72 146.53 478.7 141.99 483.19 130.74 M 467.45 148.85 C 470.83 145.79 475.57 138.79 483.19 130.74 M 467.19 155.25 C 475.6 149.84 472.68 143.47 488.84 130.34 M 467.19 155.25 C 472.65 149.41 478.01 144.2 488.84 130.34 M 467.58 160.89 C 474.42 154.03 483.93 145 493.82 130.7 M 467.58 160.89 C 477.3 153.81 481.71 142.78 493.82 130.7 M 467.32 167.29 C 481.2 152.25 485.55 146.09 499.47 130.31 M 467.32 167.29 C 479.03 155.52 489.72 140.75 499.47 130.31 M 467.71 172.93 C 484.24 155.83 491.82 140.77 504.45 130.67 M 467.71 172.93 C 474.25 163.08 485.21 153.84 504.45 130.67 M 467.45 179.33 C 486.23 161.9 500.25 144.76 510.1 130.27 M 467.45 179.33 C 480.74 165.52 490.91 150.59 510.1 130.27 M 467.19 185.73 C 480.32 175.37 488.93 163.39 515.08 130.63 M 467.19 185.73 C 483.96 168.38 500.4 145.82 515.08 130.63 M 468.24 190.62 C 486.71 171.13 505.76 154 520.73 130.24 M 468.24 190.62 C 482.22 172.8 498.08 154.24 520.73 130.24 M 473.23 190.98 C 494.15 172.96 513.32 146.12 525.71 130.6 M 473.23 190.98 C 482.43 180.88 494.9 165.88 525.71 130.6 M 478.87 190.58 C 491.38 172.36 508.15 151.99 531.36 130.21 M 478.87 190.58 C 494.77 172.76 510.53 156.46 531.36 130.21 M 483.86 190.94 C 496.68 168.78 516.71 154.94 536.34 130.57 M 483.86 190.94 C 503.81 174 518.58 152.43 536.34 130.57 M 489.5 190.55 C 514.13 166.42 531.16 143.5 541.99 130.17 M 489.5 190.55 C 503.14 175.88 512.22 165.02 541.99 130.17 M 494.49 190.91 C 513.24 175.8 528.85 155.46 546.97 130.53 M 494.49 190.91 C 510.6 171.74 528.69 153.92 546.97 130.53 M 499.48 191.27 C 514.46 171.44 532.94 157.31 552.62 130.14 M 499.48 191.27 C 513.61 172.66 528.1 158.94 552.62 130.14 M 505.12 190.87 C 518.05 176.19 532.83 160.45 557.6 130.5 M 505.12 190.87 C 523.11 166.95 544.43 147.53 557.6 130.5 M 510.11 191.23 C 527.7 176.69 535.43 160.62 562.59 130.86 M 510.11 191.23 C 521.96 177.85 530.38 166.67 562.59 130.86 M 515.75 190.84 C 530.95 179.31 543.76 158.53 568.23 130.46 M 515.75 190.84 C 533.51 169.46 552.61 149.84 568.23 130.46 M 520.74 191.2 C 540.94 170.45 561.5 145.21 573.22 130.82 M 520.74 191.2 C 539 172.57 551.8 158.05 573.22 130.82 M 526.38 190.8 C 539.7 174.01 552.55 158.5 578.86 130.43 M 526.38 190.8 C 537.27 177.32 552.05 163.93 578.86 130.43 M 531.37 191.16 C 544.95 169.96 559.68 155.41 583.85 130.79 M 531.37 191.16 C 550.02 167.71 569.39 145.89 583.85 130.79 M 537.01 190.77 C 544.54 182.62 554.35 163.51 588.84 131.15 M 537.01 190.77 C 547.47 177.39 559.74 164.11 588.84 131.15 M 542 191.13 C 555.69 179.88 568.49 163.02 588.58 137.55 M 542 191.13 C 558.38 175.87 572.11 158.91 588.58 137.55 M 547.64 190.74 C 560.22 175.94 568.75 161.22 588.31 143.94 M 547.64 190.74 C 561.31 171.67 579.11 154.76 588.31 143.94 M 552.63 191.1 C 560.36 183.51 569.83 171.51 588.71 149.59 M 552.63 191.1 C 562.14 180.89 569.09 173.21 588.71 149.59 M 558.27 190.7 C 563.31 181.88 578.58 165.74 588.45 155.98 M 558.27 190.7 C 565.41 179.02 574.82 171.34 588.45 155.98 M 563.26 191.06 C 570.45 182.02 581.68 166.48 588.84 161.63 M 563.26 191.06 C 568.13 181.65 578.52 175.93 588.84 161.63 M 568.9 190.67 C 572.6 182.15 578.77 180.98 588.58 168.03 M 568.9 190.67 C 575.3 183.18 582.81 175.59 588.58 168.03 M 573.89 191.03 C 577.14 186.87 581 181.87 588.32 174.42 M 573.89 191.03 C 580.94 185.06 584.02 176.18 588.32 174.42 M 579.53 190.63 C 580.51 185.96 585.21 182.79 588.71 180.07 M 579.53 190.63 C 582.78 186.67 583.86 185.89 588.71 180.07 M 584.52 190.99 C 585.82 189.59 587.84 188.75 588.45 186.46 M 584.52 190.99 C 585.87 189.51 587.98 187.48 588.45 186.46" fill="none" stroke="#e1d5e7" stroke-linejoin="round" stroke-linecap="round" stroke-miterlimit="10" pointer-events="none"/><path d="M 467.5 130.5 C 492.14 133.49 515.15 134.18 587.5 130.5 M 467.5 130.5 C 502.09 130.41 540.9 130.19 587.5 130.5 M 587.5 130.5 C 587.23 147.69 584.38 161.85 587.5 190.5 M 587.5 130.5 C 586.13 152.9 585.27 175.38 587.5 190.5 M 587.5 190.5 C 558.26 187.27 525.26 193.1 467.5 190.5 M 587.5 190.5 C 546.65 190.14 503.96 187.68 467.5 190.5 M 467.5 190.5 C 469.29 170.79 468.3 151.13 467.5 130.5 M 467.5 190.5 C 470.2 177.6 469.51 162.03 467.5 130.5" fill="none" stroke="#9673a6" stroke-linejoin="round" stroke-linecap="round" stroke-miterlimit="10" pointer-events="none"/><g><foreignObject pointer-events="none" width="100%" height="100%" style="overflow: visible; text-align: left;"><div xmlns="http://www.w3.org/1999/xhtml" style="display: flex; align-items: unsafe center; justify-content: unsafe center; width: 118px; height: 1px; padding-top: 161px; margin-left: 469px;"><div data-drawio-colors="color: rgb(0, 0, 0); " style="box-sizing: border-box; font-size: 0px; text-align: center;"><div style="display: inline-block; font-size: 12px; font-family: Helvetica; color: rgb(0, 0, 0); line-height: 1.2; pointer-events: none; white-space: normal; overflow-wrap: normal;">舵机</div></div></div></foreignObject></g><path d="M 777.5 160.5 M 777.5 160.5 C 799.45 155.3 819.52 157.99 881.13 160.1 M 777.5 160.5 C 817.47 159.82 855.64 158.36 881.13 160.1" fill="none" stroke="rgb(0, 0, 0)" stroke-linejoin="round" stroke-linecap="round" stroke-miterlimit="10" pointer-events="none"/><path d="M 879.11 156.9 C 879.11 156.9 879.11 156.9 879.11 156.9 M 879.11 156.9 C 879.11 156.9 879.11 156.9 879.11 156.9 M 881.48 160.28 C 882.08 159.88 882.2 159.07 882.79 158.77 M 881.48 160.28 C 881.76 159.72 882.42 159.42 882.79 158.77" fill="none" stroke="rgb(0, 0, 0)" stroke-linejoin="round" stroke-linecap="round" stroke-miterlimit="10" pointer-events="none"/><path d="M 886.38 160.08 M 886.38 160.08 C 883.9 162.58 880.03 161.88 879.4 163.61 M 886.38 160.08 C 884.58 161.1 881.91 162.73 879.4 163.61 M 879.4 163.61 C 879.44 162.06 880.67 161.18 881.13 160.1 M 879.4 163.61 C 879.46 162.55 880.02 161.85 881.13 160.1 M 881.13 160.1 C 881.08 159.27 880.24 157.76 879.37 156.61 M 881.13 160.1 C 880.85 158.95 880.28 157.96 879.37 156.61 M 879.37 156.61 C 882.97 156.63 882.76 158.41 886.38 160.08 M 879.37 156.61 C 881.29 158.14 883.42 159.31 886.38 160.08" fill="none" stroke="rgb(0, 0, 0)" stroke-linejoin="round" stroke-linecap="round" stroke-miterlimit="10" pointer-events="none"/><g><foreignObject pointer-events="none" width="100%" height="100%" style="overflow: visible; text-align: left;"><div xmlns="http://www.w3.org/1999/xhtml" style="display: flex; align-items: unsafe center; justify-content: unsafe center; width: 1px; height: 1px; padding-top: 151px; margin-left: 828px;"><div data-drawio-colors="color: rgb(0, 0, 0); background-color: rgb(255, 255, 255); " style="box-sizing: border-box; font-size: 0px; text-align: center;"><div style="display: inline-block; font-size: 11px; font-family: Helvetica; color: rgb(0, 0, 0); line-height: 1.2; pointer-events: none; background-color: rgb(255, 255, 255); white-space: nowrap;">变化后俯仰角</div></div></div></foreignObject></g><path d="M 657.8 130.15 C 657.8 130.15 657.8 130.15 657.8 130.15 M 657.8 130.15 C 657.8 130.15 657.8 130.15 657.8 130.15 M 657.54 136.55 C 659.93 133.64 661.88 132.4 662.79 130.51 M 657.54 136.55 C 659.79 134.84 661.47 131.57 662.79 130.51 M 657.28 142.95 C 660.23 138.34 662.94 134.56 667.78 130.87 M 657.28 142.95 C 660.08 139.55 660.74 137.35 667.78 130.87 M 657.68 148.59 C 661.33 140.36 665.42 134.29 673.42 130.48 M 657.68 148.59 C 659.67 142.99 663.39 138.76 673.42 130.48 M 657.41 154.99 C 665.97 151.3 665.99 141.34 678.41 130.84 M 657.41 154.99 C 666.49 147.63 673.5 139.44 678.41 130.84 M 657.81 160.63 C 666.05 150.21 666.05 148.84 684.05 130.44 M 657.81 160.63 C 664.3 151.97 675.73 143.01 684.05 130.44 M 657.55 167.03 C 667.57 156.79 678.57 146.68 689.04 130.8 M 657.55 167.03 C 668.39 153.3 678.98 141 689.04 130.8 M 657.29 173.42 C 672.61 155.11 684.67 144.5 694.68 130.41 M 657.29 173.42 C 664.3 165.73 672.44 156.84 694.68 130.41 M 657.68 179.07 C 663.9 167.27 671.49 158.65 699.67 130.77 M 657.68 179.07 C 670.06 159.86 685.33 146.05 699.67 130.77 M 657.42 185.47 C 673.65 171.46 687.8 156.02 705.31 130.37 M 657.42 185.47 C 675.81 163.39 693.8 145.87 705.31 130.37 M 657.81 191.11 C 678.3 164.79 692.76 146.36 710.3 130.73 M 657.81 191.11 C 677.97 170.28 695.53 149.62 710.3 130.73 M 663.46 190.71 C 674.1 172.77 688.26 162.76 715.94 130.34 M 663.46 190.71 C 678.67 172.66 695.86 153.53 715.94 130.34 M 668.44 191.07 C 681.09 173.96 692.85 164.97 720.93 130.7 M 668.44 191.07 C 682.99 175.29 695.18 157.67 720.93 130.7 M 674.09 190.68 C 685.59 175.62 706.32 154.68 726.57 130.3 M 674.09 190.68 C 683.1 178.73 695.85 165.68 726.57 130.3 M 679.07 191.04 C 692.32 176.57 706.63 160.85 731.56 130.66 M 679.07 191.04 C 698.77 169.44 718.77 145.8 731.56 130.66 M 684.72 190.65 C 691.3 182.66 706.52 169.02 737.2 130.27 M 684.72 190.65 C 703.86 169.38 721.08 147.72 737.2 130.27 M 689.7 191.01 C 701.78 176.02 717.34 158.87 742.19 130.63 M 689.7 191.01 C 706.23 175.15 721.55 154.18 742.19 130.63 M 695.35 190.61 C 708.36 181.48 719.4 168.65 747.83 130.23 M 695.35 190.61 C 710.33 175.23 726.29 157.41 747.83 130.23 M 700.33 190.97 C 719.91 170.99 735.84 147.43 752.82 130.59 M 700.33 190.97 C 719.78 169.24 740.23 147.3 752.82 130.59 M 705.98 190.58 C 722.77 174.2 732.99 160.28 758.46 130.2 M 705.98 190.58 C 717.6 179.66 729.18 166.18 758.46 130.2 M 710.96 190.94 C 728.05 170.99 751.17 144.13 763.45 130.56 M 710.96 190.94 C 722.16 176.17 733.03 165.76 763.45 130.56 M 716.61 190.54 C 730.24 178.09 738.92 165.18 769.09 130.16 M 716.61 190.54 C 728.72 172.2 745.57 154.92 769.09 130.16 M 721.59 190.9 C 731.35 171.15 751.17 160.39 774.08 130.52 M 721.59 190.9 C 736.05 176.89 746.02 160.61 774.08 130.52 M 726.58 191.26 C 737.21 177.07 751.51 164.58 778.41 131.64 M 726.58 191.26 C 743.14 176.46 756.22 156.12 778.41 131.64 M 732.22 190.87 C 745.92 173.28 763.54 158.64 778.81 137.28 M 732.22 190.87 C 750.36 170.19 765.1 151.56 778.81 137.28 M 737.21 191.23 C 755.3 174.04 764.97 161.65 778.54 143.68 M 737.21 191.23 C 747.99 180.06 758.45 167.98 778.54 143.68 M 742.85 190.83 C 757.34 175.55 769.86 157.09 778.28 150.08 M 742.85 190.83 C 749.96 182.46 760.05 171.05 778.28 150.08 M 747.84 191.19 C 758.75 181.12 765.02 172.71 778.68 155.72 M 747.84 191.19 C 752.74 181.74 761.52 177.77 778.68 155.72 M 753.49 190.8 C 759.04 185.81 768.56 173.55 778.42 162.12 M 753.49 190.8 C 760.91 182.52 765.64 177.23 778.42 162.12 M 758.47 191.16 C 767.44 186.37 769.96 176.49 778.81 167.76 M 758.47 191.16 C 763.64 183.24 769.44 177.44 778.81 167.76 M 764.12 190.76 C 771.92 185.97 776.44 183.06 778.55 174.16 M 764.12 190.76 C 767.03 188.41 770.64 180.67 778.55 174.16 M 769.1 191.12 C 773.78 188.1 771.33 187.96 778.29 180.56 M 769.1 191.12 C 770.57 188.08 774.74 185.07 778.29 180.56 M 774.75 190.73 C 774.73 190.28 776.54 187.92 778.68 186.2 M 774.75 190.73 C 775.8 189.25 777.33 187.84 778.68 186.2" fill="none" stroke="#d5e8d4" stroke-linejoin="round" stroke-linecap="round" stroke-miterlimit="10" pointer-events="none"/><path d="M 657.5 130.5 C 679.85 128.54 708.51 129.62 777.5 130.5 M 657.5 130.5 C 703.12 134.19 745.72 132.41 777.5 130.5 M 777.5 130.5 C 775.6 146.15 778.47 167.74 777.5 190.5 M 777.5 130.5 C 778.8 150.95 775.73 171.51 777.5 190.5 M 777.5 190.5 C 751.66 189.96 727.24 190.79 657.5 190.5 M 777.5 190.5 C 730.22 190.91 680.67 190.22 657.5 190.5 M 657.5 190.5 C 657.11 174.31 657.18 153.82 657.5 130.5 M 657.5 190.5 C 656.38 168.35 656.02 143.36 657.5 130.5" fill="none" stroke="#82b366" stroke-linejoin="round" stroke-linecap="round" stroke-miterlimit="10" pointer-events="none"/><g><foreignObject pointer-events="none" width="100%" height="100%" style="overflow: visible; text-align: left;"><div xmlns="http://www.w3.org/1999/xhtml" style="display: flex; align-items: unsafe center; justify-content: unsafe center; width: 118px; height: 1px; padding-top: 161px; margin-left: 659px;"><div data-drawio-colors="color: rgb(0, 0, 0); " style="box-sizing: border-box; font-size: 0px; text-align: center;"><div style="display: inline-block; font-size: 12px; font-family: Helvetica; color: rgb(0, 0, 0); line-height: 1.2; pointer-events: none; white-space: normal; overflow-wrap: normal;">飞机</div></div></div></foreignObject></g><path d="M 117.5 160.5 L 171.13 160.5" fill="none" stroke="rgb(0, 0, 0)" stroke-miterlimit="10" pointer-events="none"/><path d="M 176.38 160.5 L 169.38 164 L 171.13 160.5 L 169.38 157 Z" fill="rgb(0, 0, 0)" stroke="rgb(0, 0, 0)" stroke-miterlimit="10" pointer-events="none"/><path d="M 96.13 146.72 C 96.13 146.72 96.13 146.72 96.13 146.72 M 96.13 146.72 C 96.13 146.72 96.13 146.72 96.13 146.72 M 86.68 163.68 C 86.52 163.06 93.94 157.57 102.43 145.57 M 86.68 163.68 C 92.66 157.3 96.73 148.43 102.43 145.57 M 89.7 166.31 C 91.91 162.85 102.63 159.03 108.07 145.18 M 89.7 166.31 C 97.04 158.47 104.37 149.05 108.07 145.18 M 92.72 168.93 C 96.42 161.05 104.99 159.27 111.09 147.8 M 92.72 168.93 C 98.53 162.53 105.65 154.97 111.09 147.8 M 95.08 172.31 C 100.35 165.57 110.89 157.97 113.45 151.18 M 95.08 172.31 C 99.41 164.7 105.01 160.43 113.45 151.18 M 98.76 174.18 C 106.92 164.03 111.12 163.63 116.47 153.8 M 98.76 174.18 C 104.55 167.98 111.51 158.72 116.47 153.8 M 102.43 176.05 C 106.14 172.58 114.5 162.54 117.52 158.69 M 102.43 176.05 C 106.25 171.54 110.1 164.74 117.52 158.69 M 106.11 177.92 C 112.53 176.13 109.3 170.32 118.57 163.58 M 106.11 177.92 C 112.07 171.8 115.19 167.93 118.57 163.58" fill="none" stroke="#fff2cc" stroke-linejoin="round" stroke-linecap="round" stroke-miterlimit="10" pointer-events="none"/><path d="M 115.22 152.9 C 117.07 155.71 118.63 159.99 117.98 163.23 C 117.34 166.48 113.49 170.03 111.35 172.35 C 109.21 174.68 107.88 177.33 105.12 177.18 C 102.37 177.03 97.95 173.81 94.81 171.45 C 91.68 169.09 87.05 165.66 86.32 162.99 C 85.59 160.32 88.77 158.15 90.42 155.43 C 92.07 152.7 93.29 148.4 96.21 146.63 C 99.13 144.86 104.66 142.91 107.96 144.81 C 111.27 146.71 114.41 154.44 116.02 158.04 C 117.62 161.63 117.6 166.15 117.61 166.39 M 93.01 150.51 C 94.88 148.46 94.32 146.09 97.38 145.99 C 100.43 145.9 108.37 148.31 111.34 149.97 C 114.3 151.62 113.97 153.41 115.16 155.93 C 116.35 158.44 119.13 162.05 118.49 165.04 C 117.86 168.03 114.32 171.77 111.34 173.86 C 108.35 175.94 103.46 178.24 100.59 177.57 C 97.71 176.91 96.36 172.4 94.08 169.85 C 91.8 167.3 87.1 165.36 86.9 162.28 C 86.69 159.19 91.72 152.9 92.82 151.34 C 93.93 149.79 93.75 152.96 93.52 152.96" fill="none" stroke="#d6b656" stroke-linejoin="round" stroke-linecap="round" stroke-miterlimit="10" pointer-events="none"/><g><foreignObject pointer-events="none" width="100%" height="100%" style="overflow: visible; text-align: left;"><div xmlns="http://www.w3.org/1999/xhtml" style="display: flex; align-items: unsafe center; justify-content: unsafe center; width: 28px; height: 1px; padding-top: 161px; margin-left: 89px;"><div data-drawio-colors="color: rgb(0, 0, 0); " style="box-sizing: border-box; font-size: 0px; text-align: center;"><div style="display: inline-block; font-size: 12px; font-family: Helvetica; color: rgb(0, 0, 0); line-height: 1.2; pointer-events: none; white-space: normal; overflow-wrap: normal;">大电位器</div></div></div></foreignObject></g><path d="M 207.5 160.5 L 261.13 160.5" fill="none" stroke="rgb(0, 0, 0)" stroke-miterlimit="10" pointer-events="none"/><path d="M 266.38 160.5 L 259.38 164 L 261.13 160.5 L 259.38 157 Z" fill="rgb(0, 0, 0)" stroke="rgb(0, 0, 0)" stroke-miterlimit="10" pointer-events="none"/><g><foreignObject pointer-events="none" width="100%" height="100%" style="overflow: visible; text-align: left;"><div xmlns="http://www.w3.org/1999/xhtml" style="display: flex; align-items: unsafe center; justify-content: unsafe center; width: 1px; height: 1px; padding-top: 151px; margin-left: 240px;"><div data-drawio-colors="color: rgb(0, 0, 0); background-color: rgb(255, 255, 255); " style="box-sizing: border-box; font-size: 0px; text-align: center;"><div style="display: inline-block; font-size: 11px; font-family: Helvetica; color: rgb(0, 0, 0); line-height: 1.2; pointer-events: none; background-color: rgb(255, 255, 255); white-space: nowrap;">反应电流</div></div></div></foreignObject></g><path d="M 179.79 151.87 C 179.79 151.87 179.79 151.87 179.79 151.87 M 179.79 151.87 C 179.79 151.87 179.79 151.87 179.79 151.87 M 178.21 159.78 C 181.64 154.47 182.06 154.2 188.06 148.46 M 178.21 159.78 C 180.83 158.3 182.24 154.04 188.06 148.46 M 179.92 163.91 C 185.57 157.81 193.67 151.71 193.04 148.82 M 179.92 163.91 C 182.69 158.98 184.96 159.05 193.04 148.82 M 181.63 168.05 C 189.89 160.96 193.29 159.6 198.03 149.18 M 181.63 168.05 C 185.56 161.45 190.3 157.96 198.03 149.18 M 183.99 171.42 C 188.76 167.55 193.68 159.23 203.02 149.54 M 183.99 171.42 C 189.8 163.11 194.25 156.81 203.02 149.54 M 187.01 174.05 C 189.94 165.49 199.33 166.59 206.04 152.16 M 187.01 174.05 C 192.54 164.95 201.71 159.33 206.04 152.16 M 190.03 176.67 C 197.36 173.1 202.62 167.94 209.05 154.79 M 190.03 176.67 C 193.84 170.84 199.38 163.9 209.05 154.79 M 193.05 179.3 C 197.92 176.98 206.31 166.7 206.17 164.2 M 193.05 179.3 C 194.66 177.45 199.37 174.38 206.17 164.2" fill="none" stroke="#fff2cc" stroke-linejoin="round" stroke-linecap="round" stroke-miterlimit="10" pointer-events="none"/><path d="M 200.81 148.18 C 204.19 149.61 207.1 151.53 207.91 154.05 C 208.72 156.56 206.79 160.4 205.67 163.27 C 204.56 166.15 203.75 169.02 201.23 171.31 C 198.71 173.6 193.46 176.92 190.54 177.01 C 187.63 177.1 185.91 174.72 183.74 171.85 C 181.57 168.99 178.17 163.15 177.52 159.82 C 176.86 156.49 178.15 153.97 179.79 151.87 C 181.43 149.77 183.46 147.22 187.36 147.2 C 191.25 147.19 199.77 149.69 203.16 151.76 C 206.55 153.83 207.59 159.25 207.69 159.62 M 203.41 150.53 C 206.18 152.79 209.13 157.47 209.25 160.1 C 209.38 162.73 206.41 164.13 204.16 166.29 C 201.92 168.45 198.8 172.13 195.78 173.07 C 192.76 174 188.61 173.25 186.02 171.92 C 183.44 170.59 181.58 167.53 180.29 165.1 C 179 162.66 177.74 160.48 178.27 157.31 C 178.8 154.14 180.5 147.72 183.46 146.07 C 186.42 144.41 193.08 146.75 196.03 147.38 C 198.98 148.02 200.19 149.27 201.18 149.88 C 202.16 150.49 201.46 150.43 201.92 151.05" fill="none" stroke="#d6b656" stroke-linejoin="round" stroke-linecap="round" stroke-miterlimit="10" pointer-events="none"/><g><foreignObject pointer-events="none" width="100%" height="100%" style="overflow: visible; text-align: left;"><div xmlns="http://www.w3.org/1999/xhtml" style="display: flex; align-items: unsafe center; justify-content: unsafe center; width: 28px; height: 1px; padding-top: 161px; margin-left: 179px;"><div data-drawio-colors="color: rgb(0, 0, 0); " style="box-sizing: border-box; font-size: 0px; text-align: center;"><div style="display: inline-block; font-size: 12px; font-family: Helvetica; color: rgb(0, 0, 0); line-height: 1.2; pointer-events: none; white-space: normal; overflow-wrap: normal;">小电位器</div></div></div></foreignObject></g><path d="M 7.5 160.5 M 7.5 160.5 C 19.42 160.76 37.37 163.44 81.13 160.5 M 7.5 160.5 C 25.03 160.42 46.58 160.39 81.13 160.5" fill="none" stroke="rgb(0, 0, 0)" stroke-linejoin="round" stroke-linecap="round" stroke-miterlimit="10" pointer-events="none"/><path d="M 79.21 157.19 C 79.21 157.19 79.21 157.19 79.21 157.19 M 79.21 157.19 C 79.21 157.19 79.21 157.19 79.21 157.19 M 81.58 160.57 C 82.26 159.98 81.97 159.59 82.89 159.06 M 81.58 160.57 C 81.86 160.37 82.2 159.78 82.89 159.06" fill="none" stroke="rgb(0, 0, 0)" stroke-linejoin="round" stroke-linecap="round" stroke-miterlimit="10" pointer-events="none"/><path d="M 86.38 160.5 M 86.38 160.5 C 85.38 161.75 83.64 161.39 79.38 164 M 86.38 160.5 C 83.12 161.17 81.43 163.37 79.38 164 M 79.38 164 C 80.32 163.19 80.02 162.86 81.13 160.5 M 79.38 164 C 80.06 162.59 80.92 161.31 81.13 160.5 M 81.13 160.5 C 80.32 159.94 81.05 158.24 79.38 157 M 81.13 160.5 C 80.95 159.33 80.55 159.11 79.38 157 M 79.38 157 C 80.56 157.77 82.9 158.27 86.38 160.5 M 79.38 157 C 81.83 158.6 83.21 158.11 86.38 160.5" fill="none" stroke="rgb(0, 0, 0)" stroke-linejoin="round" stroke-linecap="round" stroke-miterlimit="10" pointer-events="none"/><g><foreignObject pointer-events="none" width="100%" height="100%" style="overflow: visible; text-align: left;"><div xmlns="http://www.w3.org/1999/xhtml" style="display: flex; align-items: unsafe center; justify-content: unsafe center; width: 1px; height: 1px; padding-top: 151px; margin-left: 49px;"><div data-drawio-colors="color: rgb(0, 0, 0); background-color: rgb(255, 255, 255); " style="box-sizing: border-box; font-size: 0px; text-align: center;"><div style="display: inline-block; font-size: 11px; font-family: Helvetica; color: rgb(0, 0, 0); line-height: 1.2; pointer-events: none; background-color: rgb(255, 255, 255); white-space: nowrap;">预期俯仰角</div></div></div></foreignObject></g><g><foreignObject pointer-events="none" width="100%" height="100%" style="overflow: visible; text-align: left;"><div xmlns="http://www.w3.org/1999/xhtml" style="display: flex; align-items: unsafe center; justify-content: unsafe center; width: 1px; height: 1px; padding-top: 151px; margin-left: 148px;"><div data-drawio-colors="color: rgb(0, 0, 0); background-color: rgb(255, 255, 255); " style="box-sizing: border-box; font-size: 0px; text-align: center;"><div style="display: inline-block; font-size: 11px; font-family: Helvetica; color: rgb(0, 0, 0); line-height: 1.2; pointer-events: none; background-color: rgb(255, 255, 255); white-space: nowrap;">反应电流</div></div></div></foreignObject></g><path d="M 377.5 310.5 M 377.5 310.5 C 372.34 313.47 363.67 309.82 347.5 310.5 M 377.5 310.5 C 366.75 309.24 360.43 310.4 347.5 310.5 M 347.5 310.5 C 265.75 311.04 182.55 307.97 107.5 310.5 M 347.5 310.5 C 272.07 314.44 193.03 313.8 107.5 310.5 M 107.5 310.5 C 109.14 276.28 105.26 243.75 107.5 181.87 M 107.5 310.5 C 111.14 266.55 111.62 228.05 107.5 181.87" fill="none" stroke="rgb(0, 0, 0)" stroke-linejoin="round" stroke-linecap="round" stroke-miterlimit="10" pointer-events="none"/><path d="M 107.57 176.54 C 107.57 176.54 107.57 176.54 107.57 176.54 M 107.57 176.54 C 107.57 176.54 107.57 176.54 107.57 176.54 M 107.96 182.18 C 108.43 181.73 108.73 180.85 109.27 180.68 M 107.96 182.18 C 108.6 181.67 108.78 181.11 109.27 180.68" fill="none" stroke="rgb(0, 0, 0)" stroke-linejoin="round" stroke-linecap="round" stroke-miterlimit="10" pointer-events="none"/><path d="M 107.5 176.62 M 107.5 176.62 C 109.97 178.83 109.41 181.75 111 183.62 M 107.5 176.62 C 108.99 178.15 110.32 181.87 111 183.62 M 111 183.62 C 109.31 182.62 108.91 182.21 107.5 181.87 M 111 183.62 C 110.05 182.97 109.13 182.73 107.5 181.87 M 107.5 181.87 C 105.67 182.43 105.63 183.38 104 183.62 M 107.5 181.87 C 106.41 182.65 106.1 182.97 104 183.62 M 104 183.62 C 104.05 180.02 107.28 177.14 107.5 176.62 M 104 183.62 C 105.61 182.32 104.96 181 107.5 176.62" fill="none" stroke="rgb(0, 0, 0)" stroke-linejoin="round" stroke-linecap="round" stroke-miterlimit="10" pointer-events="none"/><g><foreignObject pointer-events="none" width="100%" height="100%" style="overflow: visible; text-align: left;"><div xmlns="http://www.w3.org/1999/xhtml" style="display: flex; align-items: unsafe center; justify-content: unsafe center; width: 1px; height: 1px; padding-top: 301px; margin-left: 238px;"><div data-drawio-colors="color: rgb(0, 0, 0); background-color: rgb(255, 255, 255); " style="box-sizing: border-box; font-size: 0px; text-align: center;"><div style="display: inline-block; font-size: 11px; font-family: Helvetica; color: rgb(0, 0, 0); line-height: 1.2; pointer-events: none; background-color: rgb(255, 255, 255); white-space: nowrap;">接触电极位移</div></div></div></foreignObject></g><path d="M 617.5 160.5 M 617.5 160.5 C 612.28 131.95 613.25 101.59 617.5 30.5 M 617.5 160.5 C 614.95 128.31 616.05 94.09 617.5 30.5 M 617.5 30.5 C 585.86 34.37 557.42 33.34 473.87 30.5 M 617.5 30.5 C 577.32 29.73 539.48 32.09 473.87 30.5" fill="none" stroke="rgb(0, 0, 0)" stroke-linejoin="round" stroke-linecap="round" stroke-miterlimit="10" pointer-events="none"/><path d="M 468.56 30.57 C 468.56 30.57 468.56 30.57 468.56 30.57 M 468.56 30.57 C 468.56 30.57 468.56 30.57 468.56 30.57 M 472.24 32.44 C 472.43 32.13 473.15 31.49 474.2 30.17 M 472.24 32.44 C 472.62 31.68 473.32 31.41 474.2 30.17" fill="none" stroke="rgb(0, 0, 0)" stroke-linejoin="round" stroke-linecap="round" stroke-miterlimit="10" pointer-events="none"/><path d="M 468.62 30.5 M 468.62 30.5 C 471.81 28.23 473.03 27.07 475.62 27 M 468.62 30.5 C 469.4 29.38 471.09 29.9 475.62 27 M 475.62 27 C 475.17 27.46 474.45 28.39 473.87 30.5 M 475.62 27 C 474.7 28.21 474.24 29.75 473.87 30.5 M 473.87 30.5 C 474.94 31.31 475.51 32.45 475.62 34 M 473.87 30.5 C 473.96 31.47 474.99 32.14 475.62 34 M 475.62 34 C 474.45 32.01 469.39 31.49 468.62 30.5 M 475.62 34 C 472.63 33.07 470.12 31.12 468.62 30.5" fill="none" stroke="rgb(0, 0, 0)" stroke-linejoin="round" stroke-linecap="round" stroke-miterlimit="10" pointer-events="none"/><g><foreignObject pointer-events="none" width="100%" height="100%" style="overflow: visible; text-align: left;"><div xmlns="http://www.w3.org/1999/xhtml" style="display: flex; align-items: unsafe center; justify-content: unsafe center; width: 1px; height: 1px; padding-top: 21px; margin-left: 558px;"><div data-drawio-colors="color: rgb(0, 0, 0); background-color: rgb(255, 255, 255); " style="box-sizing: border-box; font-size: 0px; text-align: center;"><div style="display: inline-block; font-size: 11px; font-family: Helvetica; color: rgb(0, 0, 0); line-height: 1.2; pointer-events: none; background-color: rgb(255, 255, 255); white-space: nowrap;">角位移</div></div></div></foreignObject></g><path d="M 347.5 30.5 M 347.5 30.5 C 312.47 30.65 281.59 28.99 192.5 30.5 M 347.5 30.5 C 304.9 32.52 266.51 29.87 192.5 30.5 M 192.5 30.5 C 190.57 63.35 193.73 96.79 192.5 139.13 M 192.5 30.5 C 190.53 75.3 193.06 115.5 192.5 139.13" fill="none" stroke="rgb(0, 0, 0)" stroke-linejoin="round" stroke-linecap="round" stroke-miterlimit="10" pointer-events="none"/><path d="M 189.01 137.36 C 189.01 137.36 189.01 137.36 189.01 137.36 M 189.01 137.36 C 189.01 137.36 189.01 137.36 189.01 137.36 M 190.72 141.5 C 190.8 140.57 191.89 139.7 192.69 139.23 M 190.72 141.5 C 191.23 140.86 192.39 139.52 192.69 139.23" fill="none" stroke="rgb(0, 0, 0)" stroke-linejoin="round" stroke-linecap="round" stroke-miterlimit="10" pointer-events="none"/><path d="M 192.5 144.38 M 192.5 144.38 C 190.51 140.91 189.49 139.56 189 137.38 M 192.5 144.38 C 192.04 141.89 190.37 139.76 189 137.38 M 189 137.38 C 189.75 137.34 191 138.44 192.5 139.13 M 189 137.38 C 189.65 137.48 190.97 137.88 192.5 139.13 M 192.5 139.13 C 193 139.09 195.09 137.75 196 137.38 M 192.5 139.13 C 193.54 138.39 194.62 137.92 196 137.38 M 196 137.38 C 194 140.1 196.26 138.94 192.5 144.38 M 196 137.38 C 194.36 139.48 194.32 141.47 192.5 144.38" fill="none" stroke="rgb(0, 0, 0)" stroke-linejoin="round" stroke-linecap="round" stroke-miterlimit="10" pointer-events="none"/><g><foreignObject pointer-events="none" width="100%" height="100%" style="overflow: visible; text-align: left;"><div xmlns="http://www.w3.org/1999/xhtml" style="display: flex; align-items: unsafe center; justify-content: unsafe center; width: 1px; height: 1px; padding-top: 21px; margin-left: 258px;"><div data-drawio-colors="color: rgb(0, 0, 0); background-color: rgb(255, 255, 255); " style="box-sizing: border-box; font-size: 0px; text-align: center;"><div style="display: inline-block; font-size: 11px; font-family: Helvetica; color: rgb(0, 0, 0); line-height: 1.2; pointer-events: none; background-color: rgb(255, 255, 255); white-space: nowrap;">接触电极位移</div></div></div></foreignObject></g><path d="M 347.32 0.7 C 347.32 0.7 347.32 0.7 347.32 0.7 M 347.32 0.7 C 347.32 0.7 347.32 0.7 347.32 0.7 M 347.72 6.35 C 349.98 4.09 350.62 3.86 352.97 0.31 M 347.72 6.35 C 349.1 4.83 350.74 2.93 352.97 0.31 M 347.46 12.74 C 351.01 8.04 351.08 5.03 357.95 0.67 M 347.46 12.74 C 350.63 7.85 354.54 2.96 357.95 0.67 M 347.19 19.14 C 347.55 17.04 351.8 13.54 363.6 0.27 M 347.19 19.14 C 354.23 10.84 359.09 2.01 363.6 0.27 M 347.59 24.79 C 349.89 16.78 355.3 13.32 368.58 0.63 M 347.59 24.79 C 354.5 19.39 358.65 15.03 368.58 0.63 M 347.33 31.18 C 352.13 21.56 358.33 19.47 374.23 0.24 M 347.33 31.18 C 350.73 26.29 358.96 19.45 374.23 0.24 M 347.72 36.83 C 351.59 26.39 363.85 25.11 379.21 0.6 M 347.72 36.83 C 360.22 23.39 373.6 10.4 379.21 0.6 M 347.46 43.22 C 361.25 26.99 373.46 7.9 384.86 0.21 M 347.46 43.22 C 359.03 30.25 370.84 17.24 384.86 0.21 M 347.2 49.62 C 361.62 35.27 374.15 19.12 389.84 0.57 M 347.2 49.62 C 364.04 34.06 378.56 14.74 389.84 0.57 M 347.59 55.26 C 363.91 32.7 385.44 9.8 395.49 0.17 M 347.59 55.26 C 365.45 37.49 382.5 19.05 395.49 0.17 M 347.99 60.91 C 366.93 41.19 380.09 25.66 400.47 0.53 M 347.99 60.91 C 363.57 42.77 382.26 20.92 400.47 0.53 M 352.98 61.27 C 367.16 42.58 381.63 32.02 406.12 0.14 M 352.98 61.27 C 370.56 42.08 385.69 25.29 406.12 0.14 M 358.62 60.87 C 375.21 32.47 396.97 14.44 411.1 0.5 M 358.62 60.87 C 371.31 44.64 385.56 29.32 411.1 0.5 M 363.61 61.23 C 381.35 40.05 406.8 18.34 416.09 0.86 M 363.61 61.23 C 377 49.23 386.2 38.92 416.09 0.86 M 369.25 60.84 C 382.97 38.42 402.31 25.53 421.73 0.46 M 369.25 60.84 C 388.99 40.88 403.39 19.03 421.73 0.46 M 374.24 61.2 C 386.06 47.53 398.06 35.16 426.72 0.82 M 374.24 61.2 C 387.99 42.58 403.92 25.82 426.72 0.82 M 379.88 60.8 C 393.23 43.6 410.94 28.04 432.36 0.43 M 379.88 60.8 C 396.61 41.29 416.81 21.57 432.36 0.43 M 384.87 61.16 C 399.61 42.64 415.7 28.96 437.35 0.79 M 384.87 61.16 C 402.53 38.51 423.47 15.05 437.35 0.79 M 390.51 60.77 C 406.03 43.85 429.15 16.76 442.99 0.39 M 390.51 60.77 C 404.15 47.1 415.67 31.36 442.99 0.39 M 395.5 61.13 C 403.56 48.65 414.38 34.26 447.98 0.75 M 395.5 61.13 C 411.3 42.75 429.69 20.46 447.98 0.75 M 401.14 60.74 C 416.68 42.39 434.42 20.34 453.62 0.36 M 401.14 60.74 C 413.18 47.33 424.23 34.23 453.62 0.36 M 406.13 61.1 C 427.25 39.56 448.92 10.5 458.61 0.72 M 406.13 61.1 C 426.18 38.48 445.97 16.79 458.61 0.72 M 411.77 60.7 C 429.75 35.44 452.9 18.72 464.25 0.32 M 411.77 60.7 C 427.07 40.65 446.37 21.33 464.25 0.32 M 416.76 61.06 C 435.66 39.14 446.04 21.78 468.59 1.44 M 416.76 61.06 C 434.17 39.07 453.87 17.04 468.59 1.44 M 422.4 60.67 C 433.37 50.11 436.88 34.77 468.32 7.84 M 422.4 60.67 C 438.39 43.79 450.96 27.95 468.32 7.84 M 427.39 61.03 C 440.6 43.9 454.88 22.83 468.72 13.48 M 427.39 61.03 C 440.5 42.94 456.99 26.3 468.72 13.48 M 433.03 60.63 C 444.43 46.57 451.9 38.4 468.46 19.88 M 433.03 60.63 C 440.63 50.54 450.95 40.97 468.46 19.88 M 438.02 60.99 C 443.37 49.5 455.35 46.21 468.85 25.52 M 438.02 60.99 C 446.37 51.63 454.22 45.53 468.85 25.52 M 443.66 60.6 C 449.94 50.65 459.85 49.3 468.59 31.92 M 443.66 60.6 C 452.36 52.48 458.85 45.63 468.59 31.92 M 448.65 60.96 C 454.46 52.44 460.34 50.01 468.33 38.32 M 448.65 60.96 C 451.78 56.82 457.47 50.11 468.33 38.32 M 454.29 60.56 C 459.38 51.11 463.65 51.49 468.72 43.96 M 454.29 60.56 C 459.84 55.05 462.75 51.56 468.72 43.96 M 459.28 60.92 C 459.61 55.48 467.77 53.11 468.46 50.36 M 459.28 60.92 C 462.66 57.32 465.64 55.18 468.46 50.36 M 464.26 61.28 C 465.43 59.82 467.34 58.56 468.86 56 M 464.26 61.28 C 465.32 60.45 466.77 57.77 468.86 56" fill="none" stroke="#dae8fc" stroke-linejoin="round" stroke-linecap="round" stroke-miterlimit="10" pointer-events="none"/><path d="M 347.5 0.5 C 372.93 1.83 394.57 -0.22 467.5 0.5 M 347.5 0.5 C 394.51 2.36 440.97 1.27 467.5 0.5 M 467.5 0.5 C 464.12 19.47 469.56 38.04 467.5 60.5 M 467.5 0.5 C 466.92 11.93 467.66 26.73 467.5 60.5 M 467.5 60.5 C 427.94 61.26 393.59 59.84 347.5 60.5 M 467.5 60.5 C 431.69 59 397.4 57.75 347.5 60.5 M 347.5 60.5 C 349.46 38.95 350.08 19.19 347.5 0.5 M 347.5 60.5 C 349.53 41.12 347.42 23.19 347.5 0.5" fill="none" stroke="#6c8ebf" stroke-linejoin="round" stroke-linecap="round" stroke-miterlimit="10" pointer-events="none"/><g><foreignObject pointer-events="none" width="100%" height="100%" style="overflow: visible; text-align: left;"><div xmlns="http://www.w3.org/1999/xhtml" style="display: flex; align-items: unsafe center; justify-content: unsafe center; width: 118px; height: 1px; padding-top: 31px; margin-left: 349px;"><div data-drawio-colors="color: rgb(0, 0, 0); " style="box-sizing: border-box; font-size: 0px; text-align: center;"><div style="display: inline-block; font-size: 12px; font-family: Helvetica; color: rgb(0, 0, 0); line-height: 1.2; pointer-events: none; white-space: normal; overflow-wrap: normal;">小电位臂</div></div></div></foreignObject></g><path d="M 842.5 160.5 M 842.5 160.5 C 844.14 190.89 843.68 221.36 842.5 310.5 M 842.5 160.5 C 840.83 212.7 838.53 262.9 842.5 310.5 M 842.5 310.5 C 725.71 315.2 601.61 312.73 503.87 310.5 M 842.5 310.5 C 716.76 312.3 590.82 312.7 503.87 310.5" fill="none" stroke="rgb(0, 0, 0)" stroke-linejoin="round" stroke-linecap="round" stroke-miterlimit="10" pointer-events="none"/><path d="M 498.32 310.84 C 498.32 310.84 498.32 310.84 498.32 310.84 M 498.32 310.84 C 498.32 310.84 498.32 310.84 498.32 310.84 M 502 312.71 C 503.26 312.3 502.89 310.95 503.97 310.45 M 502 312.71 C 502.82 312.04 503.6 311.28 503.97 310.45" fill="none" stroke="rgb(0, 0, 0)" stroke-linejoin="round" stroke-linecap="round" stroke-miterlimit="10" pointer-events="none"/><path d="M 498.62 310.5 M 498.62 310.5 C 498.85 309.07 502.06 310.01 505.62 307 M 498.62 310.5 C 501.22 309.14 504.13 307.16 505.62 307 M 505.62 307 C 504.59 307.25 504.76 307.74 503.87 310.5 M 505.62 307 C 505.22 307.42 504.58 308.82 503.87 310.5 M 503.87 310.5 C 504.7 311.4 505.17 312.54 505.62 314 M 503.87 310.5 C 504.52 311.02 504.86 312.34 505.62 314 M 505.62 314 C 503.33 312.9 501.99 311.37 498.62 310.5 M 505.62 314 C 504.29 313.47 502.82 313.12 498.62 310.5" fill="none" stroke="rgb(0, 0, 0)" stroke-linejoin="round" stroke-linecap="round" stroke-miterlimit="10" pointer-events="none"/><g><foreignObject pointer-events="none" width="100%" height="100%" style="overflow: visible; text-align: left;"><div xmlns="http://www.w3.org/1999/xhtml" style="display: flex; align-items: unsafe center; justify-content: unsafe center; width: 1px; height: 1px; padding-top: 301px; margin-left: 691px;"><div data-drawio-colors="color: rgb(0, 0, 0); background-color: rgb(255, 255, 255); " style="box-sizing: border-box; font-size: 0px; text-align: center;"><div style="display: inline-block; font-size: 11px; font-family: Helvetica; color: rgb(0, 0, 0); line-height: 1.2; pointer-events: none; background-color: rgb(255, 255, 255); white-space: nowrap;">角位移</div></div></div></foreignObject></g><path d="M 377.74 280.22 C 377.74 280.22 377.74 280.22 377.74 280.22 M 377.74 280.22 C 377.74 280.22 377.74 280.22 377.74 280.22 M 377.48 286.62 C 380.4 282.77 380.7 282.07 382.73 280.58 M 377.48 286.62 C 379.2 284.66 382.14 281.44 382.73 280.58 M 377.22 293.02 C 381.01 289.74 381.87 286.19 388.37 280.19 M 377.22 293.02 C 381.09 290.31 385.53 285.58 388.37 280.19 M 377.61 298.66 C 377.5 295.61 385.97 287.69 393.36 280.55 M 377.61 298.66 C 384.2 291.06 385.76 286.85 393.36 280.55 M 377.35 305.06 C 383.48 300.09 386.09 290.04 399 280.15 M 377.35 305.06 C 386.64 295.12 392.17 285.89 399 280.15 M 377.75 310.7 C 383.83 303.71 390.59 294.75 403.99 280.51 M 377.75 310.7 C 384.56 301.21 393.71 292.78 403.99 280.51 M 377.48 317.1 C 391.25 303.8 406.4 290.65 408.98 280.87 M 377.48 317.1 C 389.17 301 402.94 290.65 408.98 280.87 M 377.22 323.5 C 383.24 314 392.11 301.14 414.62 280.48 M 377.22 323.5 C 388.06 311 398.99 299.48 414.62 280.48 M 377.62 329.14 C 389.57 321.51 400.09 303.03 419.61 280.84 M 377.62 329.14 C 393.59 312.37 407.33 293.72 419.61 280.84 M 377.36 335.54 C 389.62 325.99 400.61 314.76 425.25 280.44 M 377.36 335.54 C 390.49 322.6 402.62 310.29 425.25 280.44 M 377.75 341.18 C 397.94 321.14 413.3 293.75 430.24 280.81 M 377.75 341.18 C 392.52 322.08 409.83 302 430.24 280.81 M 383.39 340.79 C 401.15 316.46 421.41 300.43 435.88 280.41 M 383.39 340.79 C 395.42 328.2 407.49 311.4 435.88 280.41 M 388.38 341.15 C 410.28 315.79 427.53 295.85 440.87 280.77 M 388.38 341.15 C 407.49 317.04 429.56 293.71 440.87 280.77 M 394.02 340.75 C 415.79 318.96 435.36 299.98 446.51 280.38 M 394.02 340.75 C 408.4 323.8 420.56 306.88 446.51 280.38 M 399.01 341.11 C 409.97 325.63 426.19 310.19 451.5 280.74 M 399.01 341.11 C 413.44 324.38 425.1 312.43 451.5 280.74 M 404.65 340.72 C 427.38 320.05 443.23 295.68 457.14 280.34 M 404.65 340.72 C 422.67 320.01 444.02 295.73 457.14 280.34 M 409.64 341.08 C 427.74 315.6 447.71 294.27 462.13 280.7 M 409.64 341.08 C 422.01 325.08 438.73 311.09 462.13 280.7 M 415.28 340.68 C 429.58 318.77 452.95 301.71 467.77 280.31 M 415.28 340.68 C 432.03 323.37 447.37 304.64 467.77 280.31 M 420.27 341.04 C 436.83 321.99 458.05 300.5 472.76 280.67 M 420.27 341.04 C 434.84 324.41 449.48 304.49 472.76 280.67 M 425.91 340.65 C 436.33 323.71 455.38 305.91 478.4 280.27 M 425.91 340.65 C 446.69 317.31 467.55 293.3 478.4 280.27 M 430.9 341.01 C 440.2 329.16 455.09 314.3 483.39 280.63 M 430.9 341.01 C 447.56 319.25 469.81 298.31 483.39 280.63 M 436.54 340.61 C 453.02 322.02 470.19 308.78 489.03 280.24 M 436.54 340.61 C 453.75 323.5 469.27 302.22 489.03 280.24 M 441.53 340.97 C 453.6 320.08 468.02 306.73 494.02 280.6 M 441.53 340.97 C 458.81 321.1 478.88 302.25 494.02 280.6 M 447.17 340.58 C 462.46 324.8 467.77 315.38 498.35 281.71 M 447.17 340.58 C 465.93 322.5 481.47 303.43 498.35 281.71 M 452.16 340.94 C 465.38 321.09 491.52 296.25 498.74 287.36 M 452.16 340.94 C 464.29 326.31 478.78 311.95 498.74 287.36 M 457.8 340.55 C 470.47 328.29 479.11 316.59 498.48 293.75 M 457.8 340.55 C 473.98 322.65 491.92 302.65 498.48 293.75 M 462.79 340.91 C 468.22 327.26 479.37 323.23 498.87 299.4 M 462.79 340.91 C 470.12 331.59 482.48 318.14 498.87 299.4 M 467.78 341.27 C 477.5 327.64 492.04 317.14 498.61 305.79 M 467.78 341.27 C 478.33 330.33 488.05 317.85 498.61 305.79 M 473.42 340.87 C 484.39 332.76 491.87 320.91 498.35 312.19 M 473.42 340.87 C 480.98 330.82 491.98 322.93 498.35 312.19 M 478.41 341.23 C 485.82 332.45 492.42 323.69 498.75 317.84 M 478.41 341.23 C 482.33 336.29 490.47 327.42 498.75 317.84 M 484.05 340.84 C 490.59 333.93 493.93 327.93 498.48 324.23 M 484.05 340.84 C 486.31 335.51 492.57 332.81 498.48 324.23 M 489.04 341.2 C 489.73 340.65 493.47 335.86 498.88 329.88 M 489.04 341.2 C 491.43 339.56 493.58 335.35 498.88 329.88 M 494.68 340.8 C 495.52 340.45 498.1 337.81 498.62 336.27 M 494.68 340.8 C 495.47 339.02 496.97 337.72 498.62 336.27" fill="none" stroke="#dae8fc" stroke-linejoin="round" stroke-linecap="round" stroke-miterlimit="10" pointer-events="none"/><path d="M 377.5 280.5 C 404.08 276.56 426.65 283.7 497.5 280.5 M 377.5 280.5 C 401.6 280.1 427.43 282.32 497.5 280.5 M 497.5 280.5 C 499.64 302.83 498.24 327.72 497.5 340.5 M 497.5 280.5 C 496.92 302.09 499.05 323.13 497.5 340.5 M 497.5 340.5 C 476.14 341.34 451.5 340.91 377.5 340.5 M 497.5 340.5 C 470.41 341.29 447.54 341.36 377.5 340.5 M 377.5 340.5 C 378.53 317.5 374.33 299.26 377.5 280.5 M 377.5 340.5 C 378.47 317.36 377.36 299.19 377.5 280.5" fill="none" stroke="#6c8ebf" stroke-linejoin="round" stroke-linecap="round" stroke-miterlimit="10" pointer-events="none"/><g><foreignObject pointer-events="none" width="100%" height="100%" style="overflow: visible; text-align: left;"><div xmlns="http://www.w3.org/1999/xhtml" style="display: flex; align-items: unsafe center; justify-content: unsafe center; width: 118px; height: 1px; padding-top: 311px; margin-left: 379px;"><div data-drawio-colors="color: rgb(0, 0, 0); " style="box-sizing: border-box; font-size: 0px; text-align: center;"><div style="display: inline-block; font-size: 12px; font-family: Helvetica; color: rgb(0, 0, 0); line-height: 1.2; pointer-events: none; white-space: normal; overflow-wrap: normal;">大电位臂</div></div></div></foreignObject></g></svg>